<svg width="242" height="242" viewBox="0 0 242 242" fill="none" xmlns="http://www.w3.org/2000/svg">
<circle cx="121" cy="121" r="121" fill="#FF1155"/>
<path fill-rule="evenodd" clip-rule="evenodd" d="M103.129 62.1805C104.335 62.1805 105.493 62.6599 106.346 63.5131C107.199 64.3664 107.679 65.5237 107.679 66.7303V75.8663C118.516 76.0297 129.336 76.781 140.091 78.117C140.684 78.191 141.257 78.3812 141.777 78.6767C142.296 78.9721 142.753 79.3669 143.12 79.8387C143.487 80.3105 143.757 80.8499 143.916 81.4263C144.074 82.0026 144.118 82.6045 144.044 83.1976C143.969 83.7907 143.779 84.3634 143.484 84.883C143.188 85.4026 142.794 85.8589 142.322 86.2259C141.85 86.5929 141.311 86.8634 140.734 87.0219C140.158 87.1805 139.556 87.2239 138.963 87.1498C134.959 86.6463 130.937 86.2338 126.891 85.9001C123.352 99.7058 117.239 112.72 108.874 124.258C110.803 126.587 112.817 128.826 114.94 130.973C115.786 131.834 116.256 132.996 116.246 134.203C116.235 135.41 115.746 136.564 114.885 137.41C114.025 138.256 112.863 138.726 111.656 138.716C110.449 138.705 109.295 138.216 108.449 137.355C106.61 135.486 104.835 133.553 103.129 131.562C93.5522 142.753 81.901 151.986 68.8172 158.751C67.7449 159.305 66.4966 159.41 65.347 159.043C64.1973 158.676 63.2406 157.867 62.6871 156.795C62.1336 155.723 62.0288 154.474 62.3957 153.325C62.7626 152.175 63.5712 151.218 64.6435 150.665C77.2229 144.158 88.3572 135.176 97.3778 124.258C92.0852 116.951 87.6823 109.039 84.2622 100.69C83.8322 99.5788 83.8553 98.3432 84.3266 97.2488C84.7978 96.1544 85.6795 95.2886 86.7823 94.8373C87.885 94.386 89.1208 94.3853 90.2241 94.8354C91.3273 95.2855 92.21 96.1504 92.6824 97.2443C95.472 104.053 98.9736 110.548 103.129 116.62C109.673 107.056 114.576 96.466 117.633 85.2874C100.832 84.4542 83.989 85.0773 67.2945 87.1498C66.0967 87.2995 64.8885 86.9671 63.9357 86.2259C62.9829 85.4847 62.3635 84.3954 62.2139 83.1976C62.0643 81.9997 62.3966 80.7915 63.1378 79.8387C63.879 78.8859 64.9683 78.2666 66.1662 78.117C76.9215 76.7783 87.7418 76.027 98.5789 75.8663V66.7303C98.5789 65.5237 99.0583 64.3664 99.9115 63.5131C100.765 62.6599 101.922 62.1805 103.129 62.1805ZM144.077 103.129C144.943 103.128 145.792 103.375 146.522 103.841C147.253 104.306 147.836 104.97 148.202 105.755L180.051 174.002C180.303 174.544 180.447 175.13 180.473 175.727C180.499 176.325 180.407 176.921 180.202 177.483C179.998 178.044 179.685 178.56 179.281 179.001C178.877 179.441 178.39 179.798 177.849 180.051C176.754 180.561 175.503 180.615 174.368 180.202C173.234 179.789 172.31 178.943 171.8 177.848L164.533 162.276H123.621L116.353 177.848C115.843 178.943 114.92 179.789 113.785 180.202C112.651 180.615 111.399 180.561 110.305 180.051C109.211 179.541 108.365 178.617 107.952 177.483C107.539 176.348 107.593 175.096 108.103 174.002L139.952 105.755C140.318 104.97 140.901 104.306 141.631 103.841C142.362 103.375 143.211 103.128 144.077 103.129ZM127.867 153.176H160.286L144.077 118.44L127.867 153.176Z" fill="white"/>
</svg>
